<?xml version="1.0" ?><!DOCTYPE svg  PUBLIC '-//W3C//DTD SVG 1.1//EN'  'http://www.w3.org/Graphics/SVG/1.1/DTD/svg11.dtd'><svg style="shape-rendering:geometricPrecision; text-rendering:geometricPrecision; image-rendering:optimizeQuality; fill-rule:evenodd; clip-rule:evenodd" viewBox="0 0 2048 2048" xml:space="preserve" xmlns="http://www.w3.org/2000/svg" xmlns:xlink="http://www.w3.org/1999/xlink"><defs><style type="text/css">
   <![CDATA[
    .fil2 {fill:none}
    .fil1 {fill:#F7780F}
    .fil0 {fill:#F7780F;fill-rule:nonzero}
   ]]>
  </style></defs><g id="Layer_x0020_1"><path class="fil0" d="M1557.76 1344.51l-480.051 0 -1.5626 -0.125197c-9.19489,-0.937796 -17.4319,-5.1189 -23.3646,-11.4402 -5.92205,-6.30945 -9.58702,-14.7177 -9.71221,-24.1725l-0.0625985 -0.187795 0 -549.558 0.0625985 -0.187795c0.119291,-8.5878 1.91575,-15.4051 6.93426,-21.7606 4.41615,-5.59252 10.6547,-9.68387 19.9228,-13.2626 18.0839,-7.00867 37.3477,-12.5516 57.3059,-16.2851 19.3347,-3.61772 39.2327,-5.57717 59.2477,-5.57717 83.5264,0 159.604,31.9394 216.79,84.2694 52.9075,48.4146 89.5761,114.318 100.936,188.538 5.31378,-1.55669 10.7528,-2.89961 16.3028,-4.01339 12.2622,-2.45906 24.7335,-3.763 37.2508,-3.763 52.1717,0 99.4524,21.1961 133.712,55.467 34.2177,34.2284 55.3831,81.4949 55.3831,133.687 0,52.1693 -21.1441,99.2115 -55.3323,133.257 -34.2473,34.1032 -81.5516,55.115 -133.762,55.115z"/><path class="fil1" d="M1007.12 1315.93l0 -0.168898c-0.0862205,10.7126 -5.10827,19.4232 -11.2181,19.4232 -6.14292,0 -11.165,-8.71064 -11.2512,-19.3382l-2.29606 -71.5583 -2.28662 -73.4729 4.58268 -397.826 0 -1.99961c0.0377953,-6.05434 1.66181,-11.4532 4.19055,-15.111 1.91811,-2.72244 4.39843,-4.39607 7.06064,-4.39607 2.10354,0 4.05709,0.999213 5.73189,2.74016 3.20079,3.48189 5.4378,9.62717 5.53465,16.6819l4.97363 399.911 -5.02205 145.115z"/><path class="fil1" d="M927.426 1303.31l-0.426378 14.5358c-0.0484252,5.06103 -1.28504,9.63308 -3.15118,12.9473 -1.90866,3.25276 -4.53307,5.3126 -7.34174,5.3126 -3.25158,0 -6.10867,-2.57244 -8.06694,-6.63308 -1.43976,-2.99292 -2.34331,-6.81969 -2.44134,-10.8803 -0.0377953,-0.167717 -0.0377953,-0.427559 -0.0377953,-0.655512 0,0 -4.02048,-147.116 -4.02048,-147.369l3.97205 -362.952 0.0484252 -3.4878c0.0377953,-6.39804 1.95354,-12.0307 4.8626,-15.2788 1.62402,-1.91457 3.53268,-2.9752 5.68347,-2.9752 2.09882,0 4.10315,1.14449 5.76615,3.14528 2.82284,3.22796 4.67835,8.79568 4.72678,15.1087l4.4374 366.607 -4.01103 132.574z"/><path class="fil1" d="M865.456 1318.93l0 -0.0838583c-0.0874016,9.54213 -4.4374,16.9406 -9.8256,16.9406 -5.4,0 -9.68741,-7.39843 -9.83623,-16.8567l-4.38426 -148.278 4.38426 -307.99c0.148819,-9.54331 4.43622,-17.0256 9.83623,-17.0256 5.38819,0 9.7382,7.48229 9.8256,17.0256l4.92048 308.074 -4.92048 148.194z"/><path class="fil1" d="M804.353 1319.84l0 -0.0838583c-0.145276,8.79568 -4.10433,15.7713 -9.11576,15.7713 -4.95827,0 -8.96575,-6.97087 -9.06261,-15.6874l-4.82835 -149.195 4.77992 -319.702c0.145276,-8.88544 4.15276,-15.7725 9.11103,-15.7725 5.01142,0 8.97048,6.88701 9.11576,15.7725l5.4378 319.702 -5.4378 149.195z"/><path class="fil1" d="M743.763 1321.16c-0.148819,8.14016 -3.86221,14.5382 -8.40591,14.5382 -4.57087,0 -8.24883,-6.39804 -8.3941,-14.452l-5.25355 -150.599 5.25355 -328.076c0.145276,-8.1378 3.82323,-14.537 8.3941,-14.537 4.5437,0 8.25709,6.39922 8.40591,14.537l5.863 328.076 -5.863 150.513z"/><path class="fil1" d="M683.585 1322.16l0 -0.0838583c-0.145276,7.4752 -3.53268,13.278 -7.68426,13.278 -4.1563,0 -7.54016,-5.80276 -7.68544,-13.1941l-5.6315 -151.513c0,0 5.6315,-317.388 5.6315,-317.45 0.145276,-7.39607 3.52914,-13.2827 7.68544,-13.2827 4.15158,0 7.53544,5.88662 7.68426,13.2827l6.38977 317.45 -6.38977 151.513z"/><path class="fil1" d="M623.008 1324.56l0 -0.0838583c-0.193701,6.73583 -3.24922,12.0484 -7.02402,12.0484 -3.71221,0 -6.76654,-5.3126 -6.96378,-12.0484l-6.06142 -153.08c0,0 6.06142,-292.971 6.06142,-292.971 0.197244,-6.71693 3.25158,-12.0307 6.96378,-12.0307 3.77481,0 6.83032,5.31378 7.02402,12.0307l6.86693 292.971 -6.86693 153.164z"/><path class="fil1" d="M564.676 1324.65l0 -0.0850394c-0.193701,6.06142 -2.95394,10.8874 -6.30237,10.8874 -3.33544,-0.00708662 -6.10985,-4.82599 -6.2941,-10.8024l-6.43701 -154.08 6.43701 -238.434c0.184252,-6.06024 2.95866,-10.8614 6.2941,-10.8614 3.34843,0 6.10867,4.80118 6.30237,10.7965l7.30749 238.499 -7.30749 154.08z"/><path class="fil1" d="M505.883 1324.56c-0.184252,5.48268 -2.62559,9.54213 -5.53465,9.54213 -3.00709,0 -5.38583,-4.05945 -5.58308,-9.54213l-6.91654 -154.078 6.91654 -146.519c0.197244,-5.48386 2.57599,-9.54213 5.58308,-9.54213 2.95748,0 5.3504,4.05827 5.53465,9.45709l7.83308 146.604 -7.83308 154.078z"/><path class="fil1" d="M447.639 1323.33c-0.242126,4.71733 -2.34449,8.28898 -4.87323,8.28898 -2.57953,-0.00472441 -4.68189,-3.57166 -4.91457,-8.28898l-7.30276 -152.85 7.30276 -157.973c0.232677,-4.74095 2.33504,-8.3067 4.91457,-8.3067 2.52874,0 4.63111,3.56575 4.87323,8.3067l8.29371 157.973 -8.29371 152.85z"/><path class="fil1" d="M389.761 1318.59c-0.245669,4.14449 -2.01496,7.05473 -4.15512,7.05473 -2.19921,0 -3.92008,-2.91024 -4.15276,-7.05473l-7.73386 -148.108c0,0 7.73386,-153.743 7.73386,-153.743 0.184252,-4.14449 1.95354,-7.13977 4.15276,-7.13977 2.14016,0 3.90945,2.99528 4.15512,7.13977l8.77324 153.743 -8.77324 148.108z"/><path class="fil1" d="M332.424 1297.17c-0.294095,3.39803 -1.72441,5.82638 -3.48425,5.82638 -1.72087,0 -3.19961,-2.42835 -3.44528,-5.82638l-8.15906 -126.77 8.15906 -129.579c0.245669,-3.3378 1.72441,-5.82638 3.44528,-5.82638 1.75984,0 3.19016,2.42835 3.48425,5.82638l9.26103 129.579 -9.26103 126.77z"/><path class="fil1" d="M278.905 1249.26c-0.279921,3.25276 -1.60984,5.57126 -3.33544,5.57126 -1.72087,0 -3.05315,-2.31851 -3.29646,-5.6563l-6.06024 -78.7808 6.06024 -80.1001c0.243307,-3.3189 1.57559,-5.65748 3.29646,-5.65748 1.72559,0 3.05551,2.33858 3.33544,5.65748l7.21064 80.1851 -7.21064 78.7808z"/></g><rect class="fil2" height="2048" width="2048"/></svg>